G04*
G04 #@! TF.GenerationSoftware,Altium Limited,Altium Designer,18.0.7 (293)*
G04*
G04 Layer_Color=8388736*
%FSLAX25Y25*%
%MOIN*%
G70*
G01*
G75*
%ADD65C,0.07874*%
%ADD66C,0.04737*%
%ADD67R,0.07887X0.04737*%
%ADD68R,0.04737X0.10642*%
%ADD69R,0.07099X0.07887*%
%ADD70R,0.04343X0.04540*%
%ADD71R,0.06115X0.06706*%
%ADD72R,0.05918X0.06706*%
%ADD73R,0.05131X0.03162*%
%ADD74R,0.10249X0.06706*%
%ADD75R,0.01981X0.05524*%
%ADD76R,0.05524X0.01981*%
%ADD77R,0.04343X0.03950*%
%ADD78R,0.07493X0.10642*%
%ADD79R,0.10642X0.07493*%
%ADD80R,0.12611X0.06902*%
%ADD81R,0.04737X0.07099*%
%ADD82R,0.05721X0.07099*%
%ADD83R,0.01981X0.05524*%
%ADD84C,0.16548*%
%ADD85C,0.07887*%
%ADD86R,0.07887X0.07887*%
%ADD87C,0.12611*%
%ADD88C,0.09461*%
%ADD89C,0.09461*%
%ADD90C,0.10249*%
%ADD91R,0.10249X0.10249*%
%ADD92R,0.08800X0.08800*%
%ADD93C,0.08800*%
%ADD94O,0.07887X0.25603*%
%ADD95O,0.07887X0.22060*%
%ADD96O,0.22060X0.07887*%
%ADD97C,0.13005*%
%ADD98C,0.04000*%
G54D65*
X-7874Y-7874D02*
D03*
X7874Y59055D02*
D03*
Y192913D02*
D03*
X834646Y208661D02*
D03*
Y74803D02*
D03*
G54D66*
X-7874Y-7874D02*
D03*
X7874Y59055D02*
D03*
Y192913D02*
D03*
X834646Y208661D02*
D03*
Y74803D02*
D03*
G54D67*
X320866Y86614D02*
D03*
Y78740D02*
D03*
Y70866D02*
D03*
Y62992D02*
D03*
Y55118D02*
D03*
Y47244D02*
D03*
Y220472D02*
D03*
Y212598D02*
D03*
Y204724D02*
D03*
Y196850D02*
D03*
Y188976D02*
D03*
Y181102D02*
D03*
X521654Y181102D02*
D03*
Y188976D02*
D03*
Y196850D02*
D03*
Y204724D02*
D03*
Y212598D02*
D03*
Y220472D02*
D03*
Y47244D02*
D03*
Y55118D02*
D03*
Y62992D02*
D03*
Y70866D02*
D03*
Y78740D02*
D03*
Y86614D02*
D03*
G54D68*
X381890Y96850D02*
D03*
Y37008D02*
D03*
X374016D02*
D03*
X366142D02*
D03*
X358268D02*
D03*
X350394D02*
D03*
X342520D02*
D03*
X334646D02*
D03*
X326772D02*
D03*
Y96850D02*
D03*
X334646D02*
D03*
X342520D02*
D03*
X350394D02*
D03*
X358268D02*
D03*
X366142D02*
D03*
X374016D02*
D03*
X381890Y230709D02*
D03*
Y170866D02*
D03*
X374016D02*
D03*
X366142D02*
D03*
X358268D02*
D03*
X350394D02*
D03*
X342520D02*
D03*
X334646D02*
D03*
X326772D02*
D03*
Y230709D02*
D03*
X334646D02*
D03*
X342520D02*
D03*
X350394D02*
D03*
X358268D02*
D03*
X366142D02*
D03*
X374016D02*
D03*
X460630Y170866D02*
D03*
Y230709D02*
D03*
X468504D02*
D03*
X476378D02*
D03*
X484252D02*
D03*
X492126D02*
D03*
X500000D02*
D03*
X507874D02*
D03*
X515748D02*
D03*
Y170866D02*
D03*
X507874D02*
D03*
X500000D02*
D03*
X492126D02*
D03*
X484252D02*
D03*
X476378D02*
D03*
X468504D02*
D03*
X460630Y37008D02*
D03*
Y96850D02*
D03*
X468504D02*
D03*
X476378D02*
D03*
X484252D02*
D03*
X492126D02*
D03*
X500000D02*
D03*
X507874D02*
D03*
X515748D02*
D03*
Y37008D02*
D03*
X507874D02*
D03*
X500000D02*
D03*
X492126D02*
D03*
X484252D02*
D03*
X476378D02*
D03*
X468504D02*
D03*
G54D69*
X50591Y54134D02*
D03*
X61614D02*
D03*
X50591Y187992D02*
D03*
X61614D02*
D03*
X791929Y213583D02*
D03*
X780905D02*
D03*
X791929Y79724D02*
D03*
X780905D02*
D03*
G54D70*
X140059Y40354D02*
D03*
X127657D02*
D03*
X140059Y174213D02*
D03*
X127657D02*
D03*
X702461Y227362D02*
D03*
X714862D02*
D03*
X702461Y93504D02*
D03*
X714862D02*
D03*
G54D71*
X347638Y18701D02*
D03*
X355118D02*
D03*
X338386D02*
D03*
X330906D02*
D03*
X376772Y120079D02*
D03*
X369291D02*
D03*
X346654Y111221D02*
D03*
X354134D02*
D03*
X294094Y93504D02*
D03*
X286614D02*
D03*
X294094Y84646D02*
D03*
X286614D02*
D03*
X286614Y75787D02*
D03*
X294094D02*
D03*
X206890Y22638D02*
D03*
X214370D02*
D03*
X163189Y93504D02*
D03*
X155709D02*
D03*
X155709Y102362D02*
D03*
X163189D02*
D03*
X155709Y75787D02*
D03*
X163189D02*
D03*
X155709Y66929D02*
D03*
X163189D02*
D03*
X137598Y66929D02*
D03*
X130118D02*
D03*
X347638Y152559D02*
D03*
X355118D02*
D03*
X338386D02*
D03*
X330906D02*
D03*
X376772Y253937D02*
D03*
X369291D02*
D03*
X346654Y245079D02*
D03*
X354134D02*
D03*
X294094Y227362D02*
D03*
X286614D02*
D03*
X294094Y218504D02*
D03*
X286614D02*
D03*
X286614Y209646D02*
D03*
X294094D02*
D03*
X206890Y156496D02*
D03*
X214370D02*
D03*
X163189Y227362D02*
D03*
X155709D02*
D03*
X155709Y236221D02*
D03*
X163189D02*
D03*
X155709Y209646D02*
D03*
X163189D02*
D03*
X155709Y200787D02*
D03*
X163189D02*
D03*
X137598Y200787D02*
D03*
X130118D02*
D03*
X494882Y249016D02*
D03*
X487402D02*
D03*
X504134D02*
D03*
X511614D02*
D03*
X465748Y147638D02*
D03*
X473228D02*
D03*
X495866Y156496D02*
D03*
X488386D02*
D03*
X548425Y174213D02*
D03*
X555905D02*
D03*
X548425Y183071D02*
D03*
X555905D02*
D03*
X555905Y191929D02*
D03*
X548425D02*
D03*
X635630Y245079D02*
D03*
X628150D02*
D03*
X679331Y174213D02*
D03*
X686811D02*
D03*
X686811Y165354D02*
D03*
X679331D02*
D03*
X686811Y191929D02*
D03*
X679331D02*
D03*
X686811Y200787D02*
D03*
X679331D02*
D03*
X704921Y200787D02*
D03*
X712402D02*
D03*
X494882Y115157D02*
D03*
X487402D02*
D03*
X504134D02*
D03*
X511614D02*
D03*
X465748Y13780D02*
D03*
X473228D02*
D03*
X495866Y22638D02*
D03*
X488386D02*
D03*
X548425Y40354D02*
D03*
X555905D02*
D03*
X548425Y49213D02*
D03*
X555905D02*
D03*
X555905Y58071D02*
D03*
X548425D02*
D03*
X635630Y111221D02*
D03*
X628150D02*
D03*
X679331Y40354D02*
D03*
X686811D02*
D03*
X686811Y31496D02*
D03*
X679331D02*
D03*
X686811Y58071D02*
D03*
X679331D02*
D03*
X686811Y66929D02*
D03*
X679331D02*
D03*
X704921Y66929D02*
D03*
X712402D02*
D03*
G54D72*
X369291Y111221D02*
D03*
X376772D02*
D03*
X294094Y102362D02*
D03*
X286614D02*
D03*
X224606Y22638D02*
D03*
X232087D02*
D03*
X239961Y111221D02*
D03*
X232480D02*
D03*
X206890D02*
D03*
X214370D02*
D03*
X191732D02*
D03*
X184252D02*
D03*
X163189Y58071D02*
D03*
X155709D02*
D03*
Y22638D02*
D03*
X163189D02*
D03*
X130118Y49213D02*
D03*
X137598D02*
D03*
X130118Y58071D02*
D03*
X137598D02*
D03*
Y78740D02*
D03*
X130118D02*
D03*
X137598Y15748D02*
D03*
X130118D02*
D03*
X258071Y102362D02*
D03*
X265551D02*
D03*
X258071Y93504D02*
D03*
X265551D02*
D03*
X258071Y13780D02*
D03*
X265551D02*
D03*
X258071Y31496D02*
D03*
X265551D02*
D03*
X258071Y77756D02*
D03*
X265551D02*
D03*
Y44291D02*
D03*
X258071D02*
D03*
X304921Y58071D02*
D03*
X297441D02*
D03*
X304921Y41339D02*
D03*
X297441D02*
D03*
X369291Y245079D02*
D03*
X376772D02*
D03*
X294094Y236221D02*
D03*
X286614D02*
D03*
X224606Y156496D02*
D03*
X232087D02*
D03*
X239961Y245079D02*
D03*
X232480D02*
D03*
X206890D02*
D03*
X214370D02*
D03*
X191732D02*
D03*
X184252D02*
D03*
X163189Y191929D02*
D03*
X155709D02*
D03*
Y156496D02*
D03*
X163189D02*
D03*
X130118Y183071D02*
D03*
X137598D02*
D03*
X130118Y191929D02*
D03*
X137598D02*
D03*
Y212598D02*
D03*
X130118D02*
D03*
X137598Y149606D02*
D03*
X130118D02*
D03*
X258071Y236221D02*
D03*
X265551D02*
D03*
X258071Y227362D02*
D03*
X265551D02*
D03*
X258071Y147638D02*
D03*
X265551D02*
D03*
X258071Y165354D02*
D03*
X265551D02*
D03*
X258071Y211614D02*
D03*
X265551D02*
D03*
Y178150D02*
D03*
X258071D02*
D03*
X304921Y191929D02*
D03*
X297441D02*
D03*
X304921Y175197D02*
D03*
X297441D02*
D03*
X473228Y156496D02*
D03*
X465748D02*
D03*
X548425Y165354D02*
D03*
X555905D02*
D03*
X617913Y245079D02*
D03*
X610433D02*
D03*
X602559Y156496D02*
D03*
X610039D02*
D03*
X635630D02*
D03*
X628150D02*
D03*
X650787D02*
D03*
X658268D02*
D03*
X679331Y209646D02*
D03*
X686811D02*
D03*
Y245079D02*
D03*
X679331D02*
D03*
X712402Y218504D02*
D03*
X704921D02*
D03*
X712402Y209646D02*
D03*
X704921D02*
D03*
Y188976D02*
D03*
X712402D02*
D03*
X704921Y251969D02*
D03*
X712402D02*
D03*
X584449Y165354D02*
D03*
X576968D02*
D03*
X584449Y174213D02*
D03*
X576968D02*
D03*
X584449Y253937D02*
D03*
X576968D02*
D03*
X584449Y236221D02*
D03*
X576968D02*
D03*
X584449Y189961D02*
D03*
X576968D02*
D03*
Y223425D02*
D03*
X584449D02*
D03*
X537598Y209646D02*
D03*
X545079D02*
D03*
X537598Y226378D02*
D03*
X545079D02*
D03*
X473228Y22638D02*
D03*
X465748D02*
D03*
X548425Y31496D02*
D03*
X555905D02*
D03*
X617913Y111221D02*
D03*
X610433D02*
D03*
X602559Y22638D02*
D03*
X610039D02*
D03*
X635630D02*
D03*
X628150D02*
D03*
X650787D02*
D03*
X658268D02*
D03*
X679331Y75787D02*
D03*
X686811D02*
D03*
Y111221D02*
D03*
X679331D02*
D03*
X712402Y84646D02*
D03*
X704921D02*
D03*
X712402Y75787D02*
D03*
X704921D02*
D03*
Y55118D02*
D03*
X712402D02*
D03*
X704921Y118110D02*
D03*
X712402D02*
D03*
X584449Y31496D02*
D03*
X576968D02*
D03*
X584449Y40354D02*
D03*
X576968D02*
D03*
X584449Y120079D02*
D03*
X576968D02*
D03*
X584449Y102362D02*
D03*
X576968D02*
D03*
X584449Y56102D02*
D03*
X576968D02*
D03*
Y89567D02*
D03*
X584449D02*
D03*
X537598Y75787D02*
D03*
X545079D02*
D03*
X537598Y92520D02*
D03*
X545079D02*
D03*
G54D73*
X250886Y20866D02*
D03*
Y24409D02*
D03*
X128347Y31299D02*
D03*
Y27559D02*
D03*
Y23819D02*
D03*
X139370D02*
D03*
Y27559D02*
D03*
Y31299D02*
D03*
X250886Y154724D02*
D03*
Y158268D02*
D03*
X128347Y165157D02*
D03*
Y161417D02*
D03*
Y157677D02*
D03*
X139370D02*
D03*
Y161417D02*
D03*
Y165157D02*
D03*
X591634Y246850D02*
D03*
Y243307D02*
D03*
X714173Y236417D02*
D03*
Y240158D02*
D03*
Y243898D02*
D03*
X703150D02*
D03*
Y240158D02*
D03*
Y236417D02*
D03*
X591634Y112992D02*
D03*
Y109449D02*
D03*
X714173Y102559D02*
D03*
Y106299D02*
D03*
Y110039D02*
D03*
X703150D02*
D03*
Y106299D02*
D03*
Y102559D02*
D03*
G54D74*
X272736Y22638D02*
D03*
Y156496D02*
D03*
X569783Y245079D02*
D03*
Y111221D02*
D03*
G54D75*
X225394Y44291D02*
D03*
X223425D02*
D03*
X221457D02*
D03*
X219488D02*
D03*
X217520D02*
D03*
X215551D02*
D03*
X213583D02*
D03*
X211614D02*
D03*
X209646D02*
D03*
X207677D02*
D03*
X205709D02*
D03*
X203740D02*
D03*
X201772D02*
D03*
X199803D02*
D03*
X197835D02*
D03*
X195866D02*
D03*
Y89567D02*
D03*
X197835D02*
D03*
X199803D02*
D03*
X201772D02*
D03*
X203740D02*
D03*
X205709D02*
D03*
X207677D02*
D03*
X209646D02*
D03*
X211614D02*
D03*
X213583D02*
D03*
X215551D02*
D03*
X217520D02*
D03*
X219488D02*
D03*
X221457D02*
D03*
X223425D02*
D03*
X225394D02*
D03*
Y178150D02*
D03*
X223425D02*
D03*
X221457D02*
D03*
X219488D02*
D03*
X217520D02*
D03*
X215551D02*
D03*
X213583D02*
D03*
X211614D02*
D03*
X209646D02*
D03*
X207677D02*
D03*
X205709D02*
D03*
X203740D02*
D03*
X201772D02*
D03*
X199803D02*
D03*
X197835D02*
D03*
X195866D02*
D03*
Y223425D02*
D03*
X197835D02*
D03*
X199803D02*
D03*
X201772D02*
D03*
X203740D02*
D03*
X205709D02*
D03*
X207677D02*
D03*
X209646D02*
D03*
X211614D02*
D03*
X213583D02*
D03*
X215551D02*
D03*
X217520D02*
D03*
X219488D02*
D03*
X221457D02*
D03*
X223425D02*
D03*
X225394D02*
D03*
X617126Y223425D02*
D03*
X619095D02*
D03*
X621063D02*
D03*
X623032D02*
D03*
X625000D02*
D03*
X626968D02*
D03*
X628937D02*
D03*
X630905D02*
D03*
X632874D02*
D03*
X634842D02*
D03*
X636811D02*
D03*
X638779D02*
D03*
X640748D02*
D03*
X642717D02*
D03*
X644685D02*
D03*
X646654D02*
D03*
X617126Y89567D02*
D03*
X619095D02*
D03*
X621063D02*
D03*
X623032D02*
D03*
X625000D02*
D03*
X626968D02*
D03*
X628937D02*
D03*
X630905D02*
D03*
X632874D02*
D03*
X634842D02*
D03*
X636811D02*
D03*
X638779D02*
D03*
X640748D02*
D03*
X642717D02*
D03*
X644685D02*
D03*
X646654D02*
D03*
G54D76*
X187992Y52165D02*
D03*
Y54134D02*
D03*
Y56102D02*
D03*
Y58071D02*
D03*
Y60039D02*
D03*
Y62008D02*
D03*
Y63976D02*
D03*
Y65945D02*
D03*
Y67913D02*
D03*
Y69882D02*
D03*
Y71850D02*
D03*
Y73819D02*
D03*
Y75787D02*
D03*
Y77756D02*
D03*
Y79724D02*
D03*
Y81693D02*
D03*
X233268D02*
D03*
Y79724D02*
D03*
Y77756D02*
D03*
Y75787D02*
D03*
Y73819D02*
D03*
Y71850D02*
D03*
Y69882D02*
D03*
Y67913D02*
D03*
Y65945D02*
D03*
Y63976D02*
D03*
Y62008D02*
D03*
Y60039D02*
D03*
Y58071D02*
D03*
Y56102D02*
D03*
Y54134D02*
D03*
Y52165D02*
D03*
X187992Y186024D02*
D03*
Y187992D02*
D03*
Y189961D02*
D03*
Y191929D02*
D03*
Y193898D02*
D03*
Y195866D02*
D03*
Y197835D02*
D03*
Y199803D02*
D03*
Y201772D02*
D03*
Y203740D02*
D03*
Y205709D02*
D03*
Y207677D02*
D03*
Y209646D02*
D03*
Y211614D02*
D03*
Y213583D02*
D03*
Y215551D02*
D03*
X233268D02*
D03*
Y213583D02*
D03*
Y211614D02*
D03*
Y209646D02*
D03*
Y207677D02*
D03*
Y205709D02*
D03*
Y203740D02*
D03*
Y201772D02*
D03*
Y199803D02*
D03*
Y197835D02*
D03*
Y195866D02*
D03*
Y193898D02*
D03*
Y191929D02*
D03*
Y189961D02*
D03*
Y187992D02*
D03*
Y186024D02*
D03*
X654528Y215551D02*
D03*
Y213583D02*
D03*
Y211614D02*
D03*
Y209646D02*
D03*
Y207677D02*
D03*
Y205709D02*
D03*
Y203740D02*
D03*
Y201772D02*
D03*
Y199803D02*
D03*
Y197835D02*
D03*
Y195866D02*
D03*
Y193898D02*
D03*
Y191929D02*
D03*
Y189961D02*
D03*
Y187992D02*
D03*
Y186024D02*
D03*
X609252D02*
D03*
Y187992D02*
D03*
Y189961D02*
D03*
Y191929D02*
D03*
Y193898D02*
D03*
Y195866D02*
D03*
Y197835D02*
D03*
Y199803D02*
D03*
Y201772D02*
D03*
Y203740D02*
D03*
Y205709D02*
D03*
Y207677D02*
D03*
Y209646D02*
D03*
Y211614D02*
D03*
Y213583D02*
D03*
Y215551D02*
D03*
X654528Y81693D02*
D03*
Y79724D02*
D03*
Y77756D02*
D03*
Y75787D02*
D03*
Y73819D02*
D03*
Y71850D02*
D03*
Y69882D02*
D03*
Y67913D02*
D03*
Y65945D02*
D03*
Y63976D02*
D03*
Y62008D02*
D03*
Y60039D02*
D03*
Y58071D02*
D03*
Y56102D02*
D03*
Y54134D02*
D03*
Y52165D02*
D03*
X609252D02*
D03*
Y54134D02*
D03*
Y56102D02*
D03*
Y58071D02*
D03*
Y60039D02*
D03*
Y62008D02*
D03*
Y63976D02*
D03*
Y65945D02*
D03*
Y67913D02*
D03*
Y69882D02*
D03*
Y71850D02*
D03*
Y73819D02*
D03*
Y75787D02*
D03*
Y77756D02*
D03*
Y79724D02*
D03*
Y81693D02*
D03*
G54D77*
X163386Y119882D02*
D03*
X155512Y116142D02*
D03*
X163386Y112402D02*
D03*
Y253740D02*
D03*
X155512Y250000D02*
D03*
X163386Y246260D02*
D03*
X679134Y147835D02*
D03*
X687008Y151575D02*
D03*
X679134Y155315D02*
D03*
Y13976D02*
D03*
X687008Y17717D02*
D03*
X679134Y21457D02*
D03*
G54D78*
X177165Y39370D02*
D03*
Y23622D02*
D03*
X133858Y110236D02*
D03*
Y94488D02*
D03*
X177165Y173228D02*
D03*
Y157480D02*
D03*
X133858Y244094D02*
D03*
Y228346D02*
D03*
X665354Y228346D02*
D03*
Y244094D02*
D03*
X708661Y157480D02*
D03*
Y173228D02*
D03*
X665354Y94488D02*
D03*
Y110236D02*
D03*
X708661Y23622D02*
D03*
Y39370D02*
D03*
G54D79*
X49213Y40354D02*
D03*
X64961D02*
D03*
Y13780D02*
D03*
X49213D02*
D03*
Y174213D02*
D03*
X64961D02*
D03*
Y147638D02*
D03*
X49213D02*
D03*
X793307Y227362D02*
D03*
X777559D02*
D03*
Y253937D02*
D03*
X793307D02*
D03*
Y93504D02*
D03*
X777559D02*
D03*
Y120079D02*
D03*
X793307D02*
D03*
G54D80*
X159449Y30807D02*
D03*
Y42028D02*
D03*
Y164665D02*
D03*
Y175886D02*
D03*
X683071Y236910D02*
D03*
Y225689D02*
D03*
Y103051D02*
D03*
Y91831D02*
D03*
G54D81*
X51181Y27559D02*
D03*
X62992D02*
D03*
X51181Y161417D02*
D03*
X62992D02*
D03*
X791339Y240158D02*
D03*
X779528D02*
D03*
X791339Y106299D02*
D03*
X779528D02*
D03*
G54D82*
X266142Y53740D02*
D03*
X257480Y68307D02*
D03*
X266142D02*
D03*
X257480Y53740D02*
D03*
X266142Y187598D02*
D03*
X257480Y202165D02*
D03*
X266142D02*
D03*
X257480Y187598D02*
D03*
X576378Y213976D02*
D03*
X585039Y199409D02*
D03*
X576378D02*
D03*
X585039Y213976D02*
D03*
X576378Y80118D02*
D03*
X585039Y65551D02*
D03*
X576378D02*
D03*
X585039Y80118D02*
D03*
G54D83*
X646654Y178150D02*
D03*
X644685D02*
D03*
X642717D02*
D03*
X640748D02*
D03*
X638779D02*
D03*
X636811D02*
D03*
X634842D02*
D03*
X632874D02*
D03*
X630905D02*
D03*
X628937D02*
D03*
X626968D02*
D03*
X625000D02*
D03*
X623032D02*
D03*
X621063D02*
D03*
X619095D02*
D03*
X617126D02*
D03*
X646654Y44291D02*
D03*
X644685D02*
D03*
X642717D02*
D03*
X640748D02*
D03*
X638779D02*
D03*
X636811D02*
D03*
X634842D02*
D03*
X632874D02*
D03*
X630905D02*
D03*
X628937D02*
D03*
X626968D02*
D03*
X625000D02*
D03*
X623032D02*
D03*
X621063D02*
D03*
X619095D02*
D03*
X617126D02*
D03*
G54D84*
X822835Y-13780D02*
D03*
X19685D02*
D03*
G54D85*
X287402Y121063D02*
D03*
X277402D02*
D03*
X267402D02*
D03*
X257402D02*
D03*
X287402Y254921D02*
D03*
X277402D02*
D03*
X267402D02*
D03*
X257402D02*
D03*
X555118Y146653D02*
D03*
X565118D02*
D03*
X575118D02*
D03*
X585118D02*
D03*
X555118Y12795D02*
D03*
X565118D02*
D03*
X575118D02*
D03*
X585118D02*
D03*
G54D86*
X297402Y121063D02*
D03*
Y254921D02*
D03*
X545118Y146653D02*
D03*
Y12795D02*
D03*
G54D87*
X107677Y98425D02*
D03*
X51772Y122047D02*
D03*
Y74803D02*
D03*
X107677Y232283D02*
D03*
X51772Y255906D02*
D03*
Y208661D02*
D03*
X734843Y169291D02*
D03*
X790748Y145669D02*
D03*
Y192913D02*
D03*
X734843Y35433D02*
D03*
X790748Y11811D02*
D03*
Y59055D02*
D03*
G54D88*
X99803Y122047D02*
D03*
Y255906D02*
D03*
X742717Y145669D02*
D03*
Y11811D02*
D03*
G54D89*
X99803Y74803D02*
D03*
Y208661D02*
D03*
X742717Y192913D02*
D03*
Y59055D02*
D03*
G54D90*
X17717Y77756D02*
D03*
Y97441D02*
D03*
Y211614D02*
D03*
Y231299D02*
D03*
X824803Y189961D02*
D03*
Y170276D02*
D03*
Y56102D02*
D03*
Y36417D02*
D03*
G54D91*
X17717Y117126D02*
D03*
Y250984D02*
D03*
X824803Y150591D02*
D03*
Y16732D02*
D03*
G54D92*
X93504Y33604D02*
D03*
Y167463D02*
D03*
X749016Y234112D02*
D03*
Y100254D02*
D03*
G54D93*
X93504Y47104D02*
D03*
Y180963D02*
D03*
X749016Y220612D02*
D03*
Y86754D02*
D03*
G54D94*
X33465Y27559D02*
D03*
Y161417D02*
D03*
X809055Y240158D02*
D03*
Y106299D02*
D03*
G54D95*
X9843Y27559D02*
D03*
Y161417D02*
D03*
X832677Y240158D02*
D03*
Y106299D02*
D03*
G54D96*
X21654Y9055D02*
D03*
Y142913D02*
D03*
X820866Y258661D02*
D03*
Y124803D02*
D03*
G54D97*
X98425Y11811D02*
D03*
X322835Y122047D02*
D03*
X98425Y145669D02*
D03*
X322835Y255906D02*
D03*
X744095Y255906D02*
D03*
X519685Y145669D02*
D03*
X744095Y122047D02*
D03*
X519685Y11811D02*
D03*
G54D98*
X219488Y17717D02*
D03*
X281496Y66929D02*
D03*
X123130Y15748D02*
D03*
X119095Y78740D02*
D03*
X124114D02*
D03*
X172244Y102362D02*
D03*
X178150Y58071D02*
D03*
X299213Y102362D02*
D03*
X364173Y111221D02*
D03*
X250000Y55118D02*
D03*
X257402Y111221D02*
D03*
X141732Y85630D02*
D03*
X172244Y79724D02*
D03*
X281496Y107283D02*
D03*
X272638Y106299D02*
D03*
X312992Y35433D02*
D03*
Y11811D02*
D03*
X192913D02*
D03*
X238189D02*
D03*
X207677Y15748D02*
D03*
X245079Y66929D02*
D03*
X280512Y84646D02*
D03*
X195866Y60039D02*
D03*
X272638Y51181D02*
D03*
X195866D02*
D03*
X207677Y37402D02*
D03*
X272638Y68898D02*
D03*
X289370Y58071D02*
D03*
X207677Y96457D02*
D03*
X171260D02*
D03*
Y66929D02*
D03*
X123031Y72835D02*
D03*
X177165Y8858D02*
D03*
X133858Y31299D02*
D03*
X123031Y23819D02*
D03*
X197835Y111221D02*
D03*
X219488Y151575D02*
D03*
X281496Y200787D02*
D03*
X123130Y149606D02*
D03*
X119095Y212598D02*
D03*
X124114D02*
D03*
X172244Y236221D02*
D03*
X178150Y191929D02*
D03*
X299213Y236221D02*
D03*
X364173Y245079D02*
D03*
X250000Y188976D02*
D03*
X257402Y245079D02*
D03*
X141732Y219488D02*
D03*
X172244Y213583D02*
D03*
X281496Y241142D02*
D03*
X272638Y240158D02*
D03*
X312992Y169291D02*
D03*
Y145669D02*
D03*
X192913D02*
D03*
X238189D02*
D03*
X207677Y149606D02*
D03*
X245079Y200787D02*
D03*
X280512Y218504D02*
D03*
X195866Y193898D02*
D03*
X272638Y185039D02*
D03*
X195866D02*
D03*
X207677Y171260D02*
D03*
X272638Y202756D02*
D03*
X289370Y191929D02*
D03*
X207677Y230315D02*
D03*
X171260D02*
D03*
Y200787D02*
D03*
X123031Y206693D02*
D03*
X177165Y142717D02*
D03*
X133858Y165157D02*
D03*
X123031Y157677D02*
D03*
X197835Y245079D02*
D03*
X623032Y250000D02*
D03*
X561024Y200787D02*
D03*
X719390Y251969D02*
D03*
X723425Y188976D02*
D03*
X718405D02*
D03*
X670276Y165354D02*
D03*
X664370Y209646D02*
D03*
X543307Y165354D02*
D03*
X478346Y156496D02*
D03*
X592520Y212598D02*
D03*
X585118Y156496D02*
D03*
X700787Y182087D02*
D03*
X670276Y187992D02*
D03*
X561024Y160433D02*
D03*
X569882Y161417D02*
D03*
X529528Y232283D02*
D03*
Y255906D02*
D03*
X649606D02*
D03*
X604331D02*
D03*
X634842Y251969D02*
D03*
X597441Y200787D02*
D03*
X562008Y183071D02*
D03*
X646654Y207677D02*
D03*
X569882Y216535D02*
D03*
X646654D02*
D03*
X634842Y230315D02*
D03*
X569882Y198819D02*
D03*
X553150Y209646D02*
D03*
X634842Y171260D02*
D03*
X671260D02*
D03*
Y200787D02*
D03*
X719488Y194882D02*
D03*
X665354Y258858D02*
D03*
X708661Y236417D02*
D03*
X719488Y243898D02*
D03*
X644685Y156496D02*
D03*
X623032Y116142D02*
D03*
X561024Y66929D02*
D03*
X719390Y118110D02*
D03*
X723425Y55118D02*
D03*
X718405D02*
D03*
X670276Y31496D02*
D03*
X664370Y75787D02*
D03*
X543307Y31496D02*
D03*
X478346Y22638D02*
D03*
X592520Y78740D02*
D03*
X585118Y22638D02*
D03*
X700787Y48228D02*
D03*
X670276Y54134D02*
D03*
X561024Y26575D02*
D03*
X569882Y27559D02*
D03*
X529528Y98425D02*
D03*
Y122047D02*
D03*
X649606D02*
D03*
X604331D02*
D03*
X634842Y118110D02*
D03*
X597441Y66929D02*
D03*
X562008Y49213D02*
D03*
X646654Y73819D02*
D03*
X569882Y82677D02*
D03*
X646654D02*
D03*
X634842Y96457D02*
D03*
X569882Y64961D02*
D03*
X553150Y75787D02*
D03*
X634842Y37402D02*
D03*
X671260D02*
D03*
Y66929D02*
D03*
X719488Y61024D02*
D03*
X665354Y125000D02*
D03*
X708661Y102559D02*
D03*
X719488Y110039D02*
D03*
X644685Y22638D02*
D03*
M02*
