M48
;Layer_Color=9474304
;FILE_FORMAT=2:5
INCH,LZ
;TYPE=PLATED
T4F00S00C0.03937
%
G90
G05
T04
G00X0025591Y0009055
M15
G01X0017717
M16
G00X0033465Y0022638
M15
G01Y003248
M16
G00X0009843Y0023622
M15
G01Y0031496
M16
G00X0832677Y0110236
M15
G01Y0102362
M16
G00X0816929Y0124803
M15
G01X0824803
M16
G00X0809055Y0111221
M15
G01Y0101378
M16
G00X0025591Y0142913
M15
G01X0017717
M16
G00X0033465Y0156496
M15
G01Y0166339
M16
G00X0009843Y015748
M15
G01Y0165354
M16
G00X0809055Y0245079
M15
G01Y0235236
M16
G00X0832677Y0244094
M15
G01Y0236221
M16
G00X0816929Y0258661
M15
G01X0824803
M16
M17
M30
