M48
;Layer_Color=9474304
;FILE_FORMAT=2:5
INCH,LZ
;TYPE=PLATED
T1F00S00C0.01600
T2F00S00C0.03600
T3F00S00C0.03937
T5F00S00C0.05118
T6F00S00C0.12205
T7F00S00C0.15748
%
T01
X012313Y0015748
X0123031Y0023819
X0177165Y0008858
X0192913Y0011811
X0207677Y0015748
X0219488Y0017717
X0238189Y0011811
X0312992
X0478346Y0022638
X0561024Y0026575
X0569882Y0027559
X0585118Y0022638
X0644685
X0670276Y0031496
X067126Y0037402
X0670276Y0054134
X067126Y0066929
X066437Y0075787
X0665354Y0125
X0670276Y0165354
X067126Y017126
X0700787Y0182087
X071939Y011811
X0719488Y0110039
X0708661Y0102559
X0719488Y0061024
X0718405Y0055118
X0723425
X0700787Y0048228
X0634842Y0037402
X0646654Y0073819
Y0082677
X0634842Y0096457
Y011811
X0623032Y0116142
X0604331Y0122047
X0649606
X0644685Y0156496
X0634842Y017126
X0585118Y0156496
X0569882Y0161417
X0561024Y0160433
X0543307Y0165354
X0562008Y0183071
X0529528Y0122047
Y0098425
X055315Y0075787
X0561024Y0066929
X0569882Y0064961
Y0082677
X059252Y007874
X0597441Y0066929
X0562008Y0049213
X0543307Y0031496
X0478346Y0156496
X0364173Y0111221
X0299213Y0102362
X0281496Y0107283
X0272638Y0106299
X0257402Y0111221
X0280512Y0084646
X0281496Y0066929
X0272638Y0068898
Y0051181
X028937Y0058071
X025Y0055118
X0245079Y0066929
X0195866Y0060039
Y0051181
X0207677Y0037402
Y0096457
X0197835Y0111221
X0192913Y0145669
X0207677Y0149606
X0219488Y0151575
X0238189Y0145669
X0207677Y017126
X0312992Y0169291
Y0145669
Y0035433
X017815Y0058071
X017126Y0066929
X0172244Y0079724
X017126Y0096457
X0172244Y0102362
X0177165Y0142717
X012313Y0149606
X0123031Y0157677
X0133858Y0165157
X0141732Y008563
X0124114Y007874
X0119095
X0123031Y0072835
X0133858Y0031299
X0123031Y0206693
X0124114Y0212598
X0119095
X0141732Y0219488
X0172244Y0213583
X017126Y0200787
X017815Y0191929
X017126Y0230315
X0172244Y0236221
X0197835Y0245079
X0207677Y0230315
X0195866Y0193898
Y0185039
X025Y0188976
X0245079Y0200787
X0272638Y0202756
X0281496Y0200787
X028937Y0191929
X0272638Y0185039
X0280512Y0218504
X0281496Y0241142
X0272638Y0240158
X0257402Y0245079
X0299213Y0236221
X0364173Y0245079
X0529528Y0255906
Y0232283
X055315Y0209646
X0561024Y0200787
X0569882Y0198819
Y0216535
X059252Y0212598
X0597441Y0200787
X0646654Y0207677
Y0216535
X0634842Y0230315
Y0251969
X0623032Y025
X0604331Y0255906
X0649606
X0665354Y0258858
X066437Y0209646
X067126Y0200787
X0670276Y0187992
X0718405Y0188976
X0723425
X0719488Y0194882
Y0243898
X071939Y0251969
X0708661Y0236417
T02
X0749016Y0086754
Y0100254
X0093504Y0047104
Y0033604
Y0167463
Y0180963
X0749016Y0220612
Y0234112
T03
X0545118Y0012795
X0555118
X0565118
X0575118
X0585118
Y0146653
X0575118
X0565118
X0555118
X0545118
X0297402Y0121063
X0287402
X0277402
X0267402
X0257402
Y0254921
X0267402
X0277402
X0287402
X0297402
T05
X0742717Y0011811
X0790748
X0824803Y0016732
Y0036417
Y0056102
Y0150591
Y0170276
X0790748Y0145669
X0742717
X0734843Y0169291
X0742717Y0059055
X0734843Y0035433
X0790748Y0059055
X0099803Y0074803
X0107677Y0098425
X0099803Y0122047
X0051772
Y0074803
X0017717Y0077756
Y0097441
Y0117126
Y0211614
Y0231299
Y0250984
X0051772Y0255906
Y0208661
X0099803
X0107677Y0232283
X0099803Y0255906
X0742717Y0192913
X0790748
X0824803Y0189961
T06
X0098425Y0011811
X0519685Y0011811
X0744095Y0122047
X0519685Y0145669
X0322835Y0122047
X0098425Y0145669
X0322835Y0255906
X0744095Y0255906
T07
X0019685Y-001378
X0822835
M30
