G04*
G04 #@! TF.GenerationSoftware,Altium Limited,Altium Designer,18.0.7 (293)*
G04*
G04 Layer_Color=2752767*
%FSLAX25Y25*%
%MOIN*%
G70*
G01*
G75*
%ADD99C,0.00200*%
%ADD100C,0.00267*%
G54D99*
X822035Y-14580D02*
Y-12979D01*
X823635D01*
Y-14580D01*
X822035D01*
X18885D02*
Y-12979D01*
X20485D01*
Y-14580D01*
X18885D01*
X107677Y97625D02*
X106877Y99225D01*
X108477D01*
X107677Y97625D01*
X51772Y121247D02*
X50972Y122847D01*
X52572D01*
X51772Y121247D01*
Y74003D02*
X50972Y75603D01*
X52572D01*
X51772Y74003D01*
X99803Y121247D02*
X99003Y122847D01*
X100603D01*
X99803Y121247D01*
Y74003D02*
X99003Y75603D01*
X100603D01*
X99803Y74003D01*
X17717Y76956D02*
X16917Y78556D01*
X18517D01*
X17717Y76956D01*
Y116326D02*
X16917Y117926D01*
X18517D01*
X17717Y116326D01*
Y96641D02*
X16917Y98241D01*
X18517D01*
X17717Y96641D01*
X93504Y32804D02*
X93904Y33204D01*
X94304D01*
X93904Y33604D01*
X94304Y34004D01*
X93904D01*
X93504Y34404D01*
X93104Y34004D01*
X92704D01*
X93104Y33604D01*
X92704Y33204D01*
X93104D01*
X93504Y32804D01*
Y46304D02*
X93904Y46704D01*
X94304D01*
X93904Y47104D01*
X94304Y47504D01*
X93904D01*
X93504Y47904D01*
X93104Y47504D01*
X92704D01*
X93104Y47104D01*
X92704Y46704D01*
X93104D01*
X93504Y46304D01*
X32665Y26759D02*
X33065Y27559D01*
X32665Y28359D01*
X33465Y27959D01*
X34265Y28359D01*
X33865Y27559D01*
X34265Y26759D01*
X33465Y27159D01*
X32665Y26759D01*
X9443Y27159D02*
Y26759D01*
X10243D01*
Y27159D01*
X10643D01*
Y27959D01*
X10243D01*
Y28359D01*
X9443D01*
Y27959D01*
X9042D01*
Y27159D01*
X9443D01*
X21254Y8655D02*
Y8255D01*
X22054D01*
Y8655D01*
X22454D01*
Y9455D01*
X22054D01*
Y9855D01*
X21254D01*
Y9455D01*
X20854D01*
Y8655D01*
X21254D01*
X97625Y11011D02*
X98025D01*
X98425Y11411D01*
X98825Y11011D01*
X99225D01*
Y11411D01*
X98825Y11811D01*
X99225Y12211D01*
Y12611D01*
X98825D01*
X98425Y12211D01*
X98025Y12611D01*
X97625D01*
Y12211D01*
X98025Y11811D01*
X97625Y11411D01*
Y11011D01*
X322035Y121247D02*
X322435D01*
X322835Y121647D01*
X323235Y121247D01*
X323635D01*
Y121647D01*
X323235Y122047D01*
X323635Y122447D01*
Y122847D01*
X323235D01*
X322835Y122447D01*
X322435Y122847D01*
X322035D01*
Y122447D01*
X322435Y122047D01*
X322035Y121647D01*
Y121247D01*
X218688Y17717D02*
X219488Y18517D01*
X220288Y17717D01*
X219488Y16917D01*
X218688Y17717D01*
X280696Y66929D02*
X281496Y67729D01*
X282296Y66929D01*
X281496Y66129D01*
X280696Y66929D01*
X122330Y15748D02*
X123130Y16548D01*
X123930Y15748D01*
X123130Y14948D01*
X122330Y15748D01*
X118295Y78740D02*
X119095Y79540D01*
X119895Y78740D01*
X119095Y77940D01*
X118295Y78740D01*
X123314D02*
X124114Y79540D01*
X124914Y78740D01*
X124114Y77940D01*
X123314Y78740D01*
X171444Y102362D02*
X172244Y103162D01*
X173044Y102362D01*
X172244Y101562D01*
X171444Y102362D01*
X177350Y58071D02*
X178150Y58871D01*
X178950Y58071D01*
X178150Y57271D01*
X177350Y58071D01*
X298413Y102362D02*
X299213Y103162D01*
X300013Y102362D01*
X299213Y101562D01*
X298413Y102362D01*
X363373Y111221D02*
X364173Y112021D01*
X364973Y111221D01*
X364173Y110421D01*
X363373Y111221D01*
X249200Y55118D02*
X250000Y55918D01*
X250800Y55118D01*
X250000Y54318D01*
X249200Y55118D01*
X256602Y111221D02*
X257402Y112021D01*
X258202Y111221D01*
X257402Y110421D01*
X256602Y111221D01*
X140932Y85630D02*
X141732Y86430D01*
X142532Y85630D01*
X141732Y84830D01*
X140932Y85630D01*
X171444Y79724D02*
X172244Y80524D01*
X173044Y79724D01*
X172244Y78924D01*
X171444Y79724D01*
X280696Y107283D02*
X281496Y108083D01*
X282296Y107283D01*
X281496Y106483D01*
X280696Y107283D01*
X271838Y106299D02*
X272638Y107099D01*
X273438Y106299D01*
X272638Y105499D01*
X271838Y106299D01*
X312192Y35433D02*
X312992Y36233D01*
X313792Y35433D01*
X312992Y34633D01*
X312192Y35433D01*
Y11811D02*
X312992Y12611D01*
X313792Y11811D01*
X312992Y11011D01*
X312192Y11811D01*
X192113D02*
X192913Y12611D01*
X193713Y11811D01*
X192913Y11011D01*
X192113Y11811D01*
X237389D02*
X238189Y12611D01*
X238989Y11811D01*
X238189Y11011D01*
X237389Y11811D01*
X206877Y15748D02*
X207677Y16548D01*
X208477Y15748D01*
X207677Y14948D01*
X206877Y15748D01*
X244279Y66929D02*
X245079Y67729D01*
X245879Y66929D01*
X245079Y66129D01*
X244279Y66929D01*
X279712Y84646D02*
X280512Y85446D01*
X281312Y84646D01*
X280512Y83846D01*
X279712Y84646D01*
X195066Y60039D02*
X195866Y60839D01*
X196666Y60039D01*
X195866Y59239D01*
X195066Y60039D01*
X271838Y51181D02*
X272638Y51981D01*
X273438Y51181D01*
X272638Y50381D01*
X271838Y51181D01*
X195066D02*
X195866Y51981D01*
X196666Y51181D01*
X195866Y50381D01*
X195066Y51181D01*
X206877Y37402D02*
X207677Y38202D01*
X208477Y37402D01*
X207677Y36602D01*
X206877Y37402D01*
X271838Y68898D02*
X272638Y69698D01*
X273438Y68898D01*
X272638Y68098D01*
X271838Y68898D01*
X288570Y58071D02*
X289370Y58871D01*
X290170Y58071D01*
X289370Y57271D01*
X288570Y58071D01*
X206877Y96457D02*
X207677Y97257D01*
X208477Y96457D01*
X207677Y95657D01*
X206877Y96457D01*
X170460D02*
X171260Y97257D01*
X172060Y96457D01*
X171260Y95657D01*
X170460Y96457D01*
Y66929D02*
X171260Y67729D01*
X172060Y66929D01*
X171260Y66129D01*
X170460Y66929D01*
X122231Y72835D02*
X123031Y73635D01*
X123831Y72835D01*
X123031Y72035D01*
X122231Y72835D01*
X176365Y8858D02*
X177165Y9658D01*
X177965Y8858D01*
X177165Y8058D01*
X176365Y8858D01*
X133058Y31299D02*
X133858Y32099D01*
X134658Y31299D01*
X133858Y30499D01*
X133058Y31299D01*
X122231Y23819D02*
X123031Y24619D01*
X123831Y23819D01*
X123031Y23019D01*
X122231Y23819D01*
X197035Y111221D02*
X197835Y112021D01*
X198635Y111221D01*
X197835Y110421D01*
X197035Y111221D01*
X107677Y231483D02*
X106877Y233083D01*
X108477D01*
X107677Y231483D01*
X51772Y255105D02*
X50972Y256705D01*
X52572D01*
X51772Y255105D01*
Y207861D02*
X50972Y209461D01*
X52572D01*
X51772Y207861D01*
X99803Y255105D02*
X99003Y256705D01*
X100603D01*
X99803Y255105D01*
Y207861D02*
X99003Y209461D01*
X100603D01*
X99803Y207861D01*
X17717Y210814D02*
X16917Y212414D01*
X18517D01*
X17717Y210814D01*
Y250184D02*
X16917Y251784D01*
X18517D01*
X17717Y250184D01*
Y230499D02*
X16917Y232099D01*
X18517D01*
X17717Y230499D01*
X93504Y166663D02*
X93904Y167063D01*
X94304D01*
X93904Y167463D01*
X94304Y167863D01*
X93904D01*
X93504Y168263D01*
X93104Y167863D01*
X92704D01*
X93104Y167463D01*
X92704Y167063D01*
X93104D01*
X93504Y166663D01*
Y180163D02*
X93904Y180563D01*
X94304D01*
X93904Y180963D01*
X94304Y181363D01*
X93904D01*
X93504Y181763D01*
X93104Y181363D01*
X92704D01*
X93104Y180963D01*
X92704Y180563D01*
X93104D01*
X93504Y180163D01*
X32665Y160617D02*
X33065Y161417D01*
X32665Y162217D01*
X33465Y161817D01*
X34265Y162217D01*
X33865Y161417D01*
X34265Y160617D01*
X33465Y161017D01*
X32665Y160617D01*
X9443Y161017D02*
Y160617D01*
X10243D01*
Y161017D01*
X10643D01*
Y161817D01*
X10243D01*
Y162217D01*
X9443D01*
Y161817D01*
X9042D01*
Y161017D01*
X9443D01*
X21254Y142513D02*
Y142113D01*
X22054D01*
Y142513D01*
X22454D01*
Y143313D01*
X22054D01*
Y143713D01*
X21254D01*
Y143313D01*
X20854D01*
Y142513D01*
X21254D01*
X97625Y144869D02*
X98025D01*
X98425Y145269D01*
X98825Y144869D01*
X99225D01*
Y145269D01*
X98825Y145669D01*
X99225Y146069D01*
Y146469D01*
X98825D01*
X98425Y146069D01*
X98025Y146469D01*
X97625D01*
Y146069D01*
X98025Y145669D01*
X97625Y145269D01*
Y144869D01*
X322035Y255105D02*
X322435D01*
X322835Y255505D01*
X323235Y255105D01*
X323635D01*
Y255505D01*
X323235Y255906D01*
X323635Y256306D01*
Y256705D01*
X323235D01*
X322835Y256306D01*
X322435Y256705D01*
X322035D01*
Y256306D01*
X322435Y255906D01*
X322035Y255505D01*
Y255105D01*
X218688Y151575D02*
X219488Y152375D01*
X220288Y151575D01*
X219488Y150775D01*
X218688Y151575D01*
X280696Y200787D02*
X281496Y201587D01*
X282296Y200787D01*
X281496Y199987D01*
X280696Y200787D01*
X122330Y149606D02*
X123130Y150406D01*
X123930Y149606D01*
X123130Y148806D01*
X122330Y149606D01*
X118295Y212598D02*
X119095Y213398D01*
X119895Y212598D01*
X119095Y211798D01*
X118295Y212598D01*
X123314D02*
X124114Y213398D01*
X124914Y212598D01*
X124114Y211798D01*
X123314Y212598D01*
X171444Y236221D02*
X172244Y237020D01*
X173044Y236221D01*
X172244Y235420D01*
X171444Y236221D01*
X177350Y191929D02*
X178150Y192729D01*
X178950Y191929D01*
X178150Y191129D01*
X177350Y191929D01*
X298413Y236221D02*
X299213Y237020D01*
X300013Y236221D01*
X299213Y235420D01*
X298413Y236221D01*
X363373Y245079D02*
X364173Y245879D01*
X364973Y245079D01*
X364173Y244279D01*
X363373Y245079D01*
X249200Y188976D02*
X250000Y189776D01*
X250800Y188976D01*
X250000Y188176D01*
X249200Y188976D01*
X256602Y245079D02*
X257402Y245879D01*
X258202Y245079D01*
X257402Y244279D01*
X256602Y245079D01*
X140932Y219488D02*
X141732Y220288D01*
X142532Y219488D01*
X141732Y218688D01*
X140932Y219488D01*
X171444Y213583D02*
X172244Y214383D01*
X173044Y213583D01*
X172244Y212783D01*
X171444Y213583D01*
X280696Y241142D02*
X281496Y241942D01*
X282296Y241142D01*
X281496Y240342D01*
X280696Y241142D01*
X271838Y240158D02*
X272638Y240957D01*
X273438Y240158D01*
X272638Y239357D01*
X271838Y240158D01*
X312192Y169291D02*
X312992Y170091D01*
X313792Y169291D01*
X312992Y168491D01*
X312192Y169291D01*
Y145669D02*
X312992Y146469D01*
X313792Y145669D01*
X312992Y144869D01*
X312192Y145669D01*
X192113D02*
X192913Y146469D01*
X193713Y145669D01*
X192913Y144869D01*
X192113Y145669D01*
X237389D02*
X238189Y146469D01*
X238989Y145669D01*
X238189Y144869D01*
X237389Y145669D01*
X206877Y149606D02*
X207677Y150406D01*
X208477Y149606D01*
X207677Y148806D01*
X206877Y149606D01*
X244279Y200787D02*
X245079Y201587D01*
X245879Y200787D01*
X245079Y199987D01*
X244279Y200787D01*
X279712Y218504D02*
X280512Y219304D01*
X281312Y218504D01*
X280512Y217704D01*
X279712Y218504D01*
X195066Y193898D02*
X195866Y194698D01*
X196666Y193898D01*
X195866Y193098D01*
X195066Y193898D01*
X271838Y185039D02*
X272638Y185839D01*
X273438Y185039D01*
X272638Y184239D01*
X271838Y185039D01*
X195066D02*
X195866Y185839D01*
X196666Y185039D01*
X195866Y184239D01*
X195066Y185039D01*
X206877Y171260D02*
X207677Y172060D01*
X208477Y171260D01*
X207677Y170460D01*
X206877Y171260D01*
X271838Y202756D02*
X272638Y203556D01*
X273438Y202756D01*
X272638Y201956D01*
X271838Y202756D01*
X288570Y191929D02*
X289370Y192729D01*
X290170Y191929D01*
X289370Y191129D01*
X288570Y191929D01*
X206877Y230315D02*
X207677Y231115D01*
X208477Y230315D01*
X207677Y229515D01*
X206877Y230315D01*
X170460D02*
X171260Y231115D01*
X172060Y230315D01*
X171260Y229515D01*
X170460Y230315D01*
Y200787D02*
X171260Y201587D01*
X172060Y200787D01*
X171260Y199987D01*
X170460Y200787D01*
X122231Y206693D02*
X123031Y207493D01*
X123831Y206693D01*
X123031Y205893D01*
X122231Y206693D01*
X176365Y142717D02*
X177165Y143517D01*
X177965Y142717D01*
X177165Y141917D01*
X176365Y142717D01*
X133058Y165157D02*
X133858Y165957D01*
X134658Y165157D01*
X133858Y164357D01*
X133058Y165157D01*
X122231Y157677D02*
X123031Y158477D01*
X123831Y157677D01*
X123031Y156877D01*
X122231Y157677D01*
X197035Y245079D02*
X197835Y245879D01*
X198635Y245079D01*
X197835Y244279D01*
X197035Y245079D01*
X734843Y168491D02*
X734043Y170091D01*
X735643D01*
X734843Y168491D01*
X790748Y144869D02*
X789948Y146469D01*
X791548D01*
X790748Y144869D01*
Y192113D02*
X789948Y193713D01*
X791548D01*
X790748Y192113D01*
X742717Y144869D02*
X741917Y146469D01*
X743517D01*
X742717Y144869D01*
Y192113D02*
X741917Y193713D01*
X743517D01*
X742717Y192113D01*
X824803Y189161D02*
X824003Y190761D01*
X825603D01*
X824803Y189161D01*
Y149791D02*
X824003Y151391D01*
X825603D01*
X824803Y149791D01*
Y169476D02*
X824003Y171076D01*
X825603D01*
X824803Y169476D01*
X749016Y233312D02*
X749416Y233712D01*
X749816D01*
X749416Y234112D01*
X749816Y234512D01*
X749416D01*
X749016Y234912D01*
X748616Y234512D01*
X748216D01*
X748616Y234112D01*
X748216Y233712D01*
X748616D01*
X749016Y233312D01*
Y219812D02*
X749416Y220212D01*
X749816D01*
X749416Y220612D01*
X749816Y221012D01*
X749416D01*
X749016Y221412D01*
X748616Y221012D01*
X748216D01*
X748616Y220612D01*
X748216Y220212D01*
X748616D01*
X749016Y219812D01*
X808255Y239357D02*
X808655Y240158D01*
X808255Y240957D01*
X809055Y240558D01*
X809855Y240957D01*
X809455Y240158D01*
X809855Y239357D01*
X809055Y239757D01*
X808255Y239357D01*
X832277Y239757D02*
Y239357D01*
X833077D01*
Y239757D01*
X833477D01*
Y240558D01*
X833077D01*
Y240957D01*
X832277D01*
Y240558D01*
X831877D01*
Y239757D01*
X832277D01*
X820466Y258261D02*
Y257861D01*
X821266D01*
Y258261D01*
X821666D01*
Y259061D01*
X821266D01*
Y259461D01*
X820466D01*
Y259061D01*
X820066D01*
Y258261D01*
X820466D01*
X743294Y255105D02*
X743694D01*
X744095Y255505D01*
X744494Y255105D01*
X744895D01*
Y255505D01*
X744494Y255906D01*
X744895Y256306D01*
Y256705D01*
X744494D01*
X744095Y256306D01*
X743694Y256705D01*
X743294D01*
Y256306D01*
X743694Y255906D01*
X743294Y255505D01*
Y255105D01*
X518885Y144869D02*
X519285D01*
X519685Y145269D01*
X520085Y144869D01*
X520485D01*
Y145269D01*
X520085Y145669D01*
X520485Y146069D01*
Y146469D01*
X520085D01*
X519685Y146069D01*
X519285Y146469D01*
X518885D01*
Y146069D01*
X519285Y145669D01*
X518885Y145269D01*
Y144869D01*
X622231Y250000D02*
X623032Y250800D01*
X623832Y250000D01*
X623032Y249200D01*
X622231Y250000D01*
X560224Y200787D02*
X561024Y201587D01*
X561824Y200787D01*
X561024Y199987D01*
X560224Y200787D01*
X718590Y251969D02*
X719390Y252768D01*
X720190Y251969D01*
X719390Y251168D01*
X718590Y251969D01*
X722625Y188976D02*
X723425Y189776D01*
X724225Y188976D01*
X723425Y188176D01*
X722625Y188976D01*
X717605D02*
X718405Y189776D01*
X719206Y188976D01*
X718405Y188176D01*
X717605Y188976D01*
X669476Y165354D02*
X670276Y166154D01*
X671076Y165354D01*
X670276Y164554D01*
X669476Y165354D01*
X663570Y209646D02*
X664370Y210446D01*
X665170Y209646D01*
X664370Y208846D01*
X663570Y209646D01*
X542507Y165354D02*
X543307Y166154D01*
X544107Y165354D01*
X543307Y164554D01*
X542507Y165354D01*
X477547Y156496D02*
X478346Y157296D01*
X479146Y156496D01*
X478346Y155696D01*
X477547Y156496D01*
X591720Y212598D02*
X592520Y213398D01*
X593320Y212598D01*
X592520Y211798D01*
X591720Y212598D01*
X584318Y156496D02*
X585118Y157296D01*
X585918Y156496D01*
X585118Y155696D01*
X584318Y156496D01*
X699987Y182087D02*
X700787Y182887D01*
X701587Y182087D01*
X700787Y181287D01*
X699987Y182087D01*
X669476Y187992D02*
X670276Y188792D01*
X671076Y187992D01*
X670276Y187192D01*
X669476Y187992D01*
X560224Y160433D02*
X561024Y161233D01*
X561824Y160433D01*
X561024Y159633D01*
X560224Y160433D01*
X569082Y161417D02*
X569882Y162217D01*
X570682Y161417D01*
X569882Y160617D01*
X569082Y161417D01*
X528728Y232283D02*
X529528Y233084D01*
X530328Y232283D01*
X529528Y231484D01*
X528728Y232283D01*
Y255906D02*
X529528Y256705D01*
X530328Y255906D01*
X529528Y255105D01*
X528728Y255906D01*
X648806D02*
X649606Y256705D01*
X650406Y255906D01*
X649606Y255105D01*
X648806Y255906D01*
X603531D02*
X604331Y256705D01*
X605131Y255906D01*
X604331Y255105D01*
X603531Y255906D01*
X634043Y251969D02*
X634842Y252768D01*
X635642Y251969D01*
X634842Y251168D01*
X634043Y251969D01*
X596641Y200787D02*
X597441Y201587D01*
X598241Y200787D01*
X597441Y199987D01*
X596641Y200787D01*
X561208Y183071D02*
X562008Y183871D01*
X562808Y183071D01*
X562008Y182271D01*
X561208Y183071D01*
X645854Y207677D02*
X646654Y208477D01*
X647453Y207677D01*
X646654Y206877D01*
X645854Y207677D01*
X569082Y216535D02*
X569882Y217335D01*
X570682Y216535D01*
X569882Y215735D01*
X569082Y216535D01*
X645854D02*
X646654Y217335D01*
X647453Y216535D01*
X646654Y215735D01*
X645854Y216535D01*
X634043Y230315D02*
X634842Y231115D01*
X635642Y230315D01*
X634842Y229515D01*
X634043Y230315D01*
X569082Y198819D02*
X569882Y199619D01*
X570682Y198819D01*
X569882Y198019D01*
X569082Y198819D01*
X552350Y209646D02*
X553150Y210446D01*
X553950Y209646D01*
X553150Y208846D01*
X552350Y209646D01*
X634043Y171260D02*
X634842Y172060D01*
X635642Y171260D01*
X634842Y170460D01*
X634043Y171260D01*
X670460D02*
X671260Y172060D01*
X672060Y171260D01*
X671260Y170460D01*
X670460Y171260D01*
Y200787D02*
X671260Y201587D01*
X672060Y200787D01*
X671260Y199987D01*
X670460Y200787D01*
X718688Y194882D02*
X719488Y195682D01*
X720288Y194882D01*
X719488Y194082D01*
X718688Y194882D01*
X664554Y258858D02*
X665354Y259658D01*
X666154Y258858D01*
X665354Y258058D01*
X664554Y258858D01*
X707861Y236417D02*
X708661Y237217D01*
X709461Y236417D01*
X708661Y235617D01*
X707861Y236417D01*
X718688Y243898D02*
X719488Y244698D01*
X720288Y243898D01*
X719488Y243098D01*
X718688Y243898D01*
X643885Y156496D02*
X644685Y157296D01*
X645485Y156496D01*
X644685Y155696D01*
X643885Y156496D01*
X734843Y34633D02*
X734043Y36233D01*
X735643D01*
X734843Y34633D01*
X790748Y11011D02*
X789948Y12611D01*
X791548D01*
X790748Y11011D01*
Y58255D02*
X789948Y59855D01*
X791548D01*
X790748Y58255D01*
X742717Y11011D02*
X741917Y12611D01*
X743517D01*
X742717Y11011D01*
Y58255D02*
X741917Y59855D01*
X743517D01*
X742717Y58255D01*
X824803Y55302D02*
X824003Y56902D01*
X825603D01*
X824803Y55302D01*
Y15932D02*
X824003Y17532D01*
X825603D01*
X824803Y15932D01*
Y35617D02*
X824003Y37217D01*
X825603D01*
X824803Y35617D01*
X749016Y99454D02*
X749416Y99854D01*
X749816D01*
X749416Y100254D01*
X749816Y100654D01*
X749416D01*
X749016Y101054D01*
X748616Y100654D01*
X748216D01*
X748616Y100254D01*
X748216Y99854D01*
X748616D01*
X749016Y99454D01*
Y85954D02*
X749416Y86354D01*
X749816D01*
X749416Y86754D01*
X749816Y87154D01*
X749416D01*
X749016Y87554D01*
X748616Y87154D01*
X748216D01*
X748616Y86754D01*
X748216Y86354D01*
X748616D01*
X749016Y85954D01*
X808255Y105499D02*
X808655Y106299D01*
X808255Y107099D01*
X809055Y106699D01*
X809855Y107099D01*
X809455Y106299D01*
X809855Y105499D01*
X809055Y105899D01*
X808255Y105499D01*
X832277Y105899D02*
Y105499D01*
X833077D01*
Y105899D01*
X833477D01*
Y106699D01*
X833077D01*
Y107099D01*
X832277D01*
Y106699D01*
X831877D01*
Y105899D01*
X832277D01*
X820466Y124403D02*
Y124003D01*
X821266D01*
Y124403D01*
X821666D01*
Y125203D01*
X821266D01*
Y125603D01*
X820466D01*
Y125203D01*
X820066D01*
Y124403D01*
X820466D01*
X743294Y121247D02*
X743694D01*
X744095Y121647D01*
X744494Y121247D01*
X744895D01*
Y121647D01*
X744494Y122047D01*
X744895Y122447D01*
Y122847D01*
X744494D01*
X744095Y122447D01*
X743694Y122847D01*
X743294D01*
Y122447D01*
X743694Y122047D01*
X743294Y121647D01*
Y121247D01*
X518885Y11011D02*
X519285D01*
X519685Y11411D01*
X520085Y11011D01*
X520485D01*
Y11411D01*
X520085Y11811D01*
X520485Y12211D01*
Y12611D01*
X520085D01*
X519685Y12211D01*
X519285Y12611D01*
X518885D01*
Y12211D01*
X519285Y11811D01*
X518885Y11411D01*
Y11011D01*
X622231Y116142D02*
X623032Y116942D01*
X623832Y116142D01*
X623032Y115342D01*
X622231Y116142D01*
X560224Y66929D02*
X561024Y67729D01*
X561824Y66929D01*
X561024Y66129D01*
X560224Y66929D01*
X718590Y118110D02*
X719390Y118910D01*
X720190Y118110D01*
X719390Y117310D01*
X718590Y118110D01*
X722625Y55118D02*
X723425Y55918D01*
X724225Y55118D01*
X723425Y54318D01*
X722625Y55118D01*
X717605D02*
X718405Y55918D01*
X719206Y55118D01*
X718405Y54318D01*
X717605Y55118D01*
X669476Y31496D02*
X670276Y32296D01*
X671076Y31496D01*
X670276Y30696D01*
X669476Y31496D01*
X663570Y75787D02*
X664370Y76587D01*
X665170Y75787D01*
X664370Y74987D01*
X663570Y75787D01*
X542507Y31496D02*
X543307Y32296D01*
X544107Y31496D01*
X543307Y30696D01*
X542507Y31496D01*
X477547Y22638D02*
X478346Y23438D01*
X479146Y22638D01*
X478346Y21838D01*
X477547Y22638D01*
X591720Y78740D02*
X592520Y79540D01*
X593320Y78740D01*
X592520Y77940D01*
X591720Y78740D01*
X584318Y22638D02*
X585118Y23438D01*
X585918Y22638D01*
X585118Y21838D01*
X584318Y22638D01*
X699987Y48228D02*
X700787Y49028D01*
X701587Y48228D01*
X700787Y47428D01*
X699987Y48228D01*
X669476Y54134D02*
X670276Y54934D01*
X671076Y54134D01*
X670276Y53334D01*
X669476Y54134D01*
X560224Y26575D02*
X561024Y27375D01*
X561824Y26575D01*
X561024Y25775D01*
X560224Y26575D01*
X569082Y27559D02*
X569882Y28359D01*
X570682Y27559D01*
X569882Y26759D01*
X569082Y27559D01*
X528728Y98425D02*
X529528Y99225D01*
X530328Y98425D01*
X529528Y97625D01*
X528728Y98425D01*
Y122047D02*
X529528Y122847D01*
X530328Y122047D01*
X529528Y121247D01*
X528728Y122047D01*
X648806D02*
X649606Y122847D01*
X650406Y122047D01*
X649606Y121247D01*
X648806Y122047D01*
X603531D02*
X604331Y122847D01*
X605131Y122047D01*
X604331Y121247D01*
X603531Y122047D01*
X634043Y118110D02*
X634842Y118910D01*
X635642Y118110D01*
X634842Y117310D01*
X634043Y118110D01*
X596641Y66929D02*
X597441Y67729D01*
X598241Y66929D01*
X597441Y66129D01*
X596641Y66929D01*
X561208Y49213D02*
X562008Y50013D01*
X562808Y49213D01*
X562008Y48413D01*
X561208Y49213D01*
X645854Y73819D02*
X646654Y74619D01*
X647453Y73819D01*
X646654Y73019D01*
X645854Y73819D01*
X569082Y82677D02*
X569882Y83477D01*
X570682Y82677D01*
X569882Y81877D01*
X569082Y82677D01*
X645854D02*
X646654Y83477D01*
X647453Y82677D01*
X646654Y81877D01*
X645854Y82677D01*
X634043Y96457D02*
X634842Y97257D01*
X635642Y96457D01*
X634842Y95657D01*
X634043Y96457D01*
X569082Y64961D02*
X569882Y65761D01*
X570682Y64961D01*
X569882Y64161D01*
X569082Y64961D01*
X552350Y75787D02*
X553150Y76587D01*
X553950Y75787D01*
X553150Y74987D01*
X552350Y75787D01*
X634043Y37402D02*
X634842Y38202D01*
X635642Y37402D01*
X634842Y36602D01*
X634043Y37402D01*
X670460D02*
X671260Y38202D01*
X672060Y37402D01*
X671260Y36602D01*
X670460Y37402D01*
Y66929D02*
X671260Y67729D01*
X672060Y66929D01*
X671260Y66129D01*
X670460Y66929D01*
X718688Y61024D02*
X719488Y61824D01*
X720288Y61024D01*
X719488Y60224D01*
X718688Y61024D01*
X664554Y125000D02*
X665354Y125800D01*
X666154Y125000D01*
X665354Y124200D01*
X664554Y125000D01*
X707861Y102559D02*
X708661Y103359D01*
X709461Y102559D01*
X708661Y101759D01*
X707861Y102559D01*
X718688Y110039D02*
X719488Y110839D01*
X720288Y110039D01*
X719488Y109239D01*
X718688Y110039D01*
X643885Y22638D02*
X644685Y23438D01*
X645485Y22638D01*
X644685Y21838D01*
X643885Y22638D01*
G54D100*
X288202Y121063D02*
X287649Y121824D01*
X286754Y121533D01*
Y120593D01*
X287649Y120302D01*
X288202Y121063D01*
X278202D02*
X277649Y121824D01*
X276754Y121533D01*
Y120593D01*
X277649Y120302D01*
X278202Y121063D01*
X268202D02*
X267649Y121824D01*
X266754Y121533D01*
Y120593D01*
X267649Y120302D01*
X268202Y121063D01*
X258202D02*
X257649Y121824D01*
X256754Y121533D01*
Y120593D01*
X257649Y120302D01*
X258202Y121063D01*
X298202D02*
X297649Y121824D01*
X296754Y121533D01*
Y120593D01*
X297649Y120302D01*
X298202Y121063D01*
X288202Y254921D02*
X287649Y255682D01*
X286754Y255392D01*
Y254451D01*
X287649Y254160D01*
X288202Y254921D01*
X278202D02*
X277649Y255682D01*
X276754Y255392D01*
Y254451D01*
X277649Y254160D01*
X278202Y254921D01*
X268202D02*
X267649Y255682D01*
X266754Y255392D01*
Y254451D01*
X267649Y254160D01*
X268202Y254921D01*
X258202D02*
X257649Y255682D01*
X256754Y255392D01*
Y254451D01*
X257649Y254160D01*
X258202Y254921D01*
X298202D02*
X297649Y255682D01*
X296754Y255392D01*
Y254451D01*
X297649Y254160D01*
X298202Y254921D01*
X555918Y146653D02*
X555365Y147414D01*
X554471Y147124D01*
Y146183D01*
X555365Y145893D01*
X555918Y146653D01*
X565918D02*
X565365Y147414D01*
X564471Y147124D01*
Y146183D01*
X565365Y145893D01*
X565918Y146653D01*
X575918D02*
X575365Y147414D01*
X574471Y147124D01*
Y146183D01*
X575365Y145893D01*
X575918Y146653D01*
X585918D02*
X585365Y147414D01*
X584471Y147124D01*
Y146183D01*
X585365Y145893D01*
X585918Y146653D01*
X545918D02*
X545365Y147414D01*
X544471Y147124D01*
Y146183D01*
X545365Y145893D01*
X545918Y146653D01*
X555918Y12795D02*
X555365Y13556D01*
X554471Y13265D01*
Y12325D01*
X555365Y12034D01*
X555918Y12795D01*
X565918D02*
X565365Y13556D01*
X564471Y13265D01*
Y12325D01*
X565365Y12034D01*
X565918Y12795D01*
X575918D02*
X575365Y13556D01*
X574471Y13265D01*
Y12325D01*
X575365Y12034D01*
X575918Y12795D01*
X585918D02*
X585365Y13556D01*
X584471Y13265D01*
Y12325D01*
X585365Y12034D01*
X585918Y12795D01*
X545918D02*
X545365Y13556D01*
X544471Y13265D01*
Y12325D01*
X545365Y12034D01*
X545918Y12795D01*
M02*
