G04*
G04 #@! TF.GenerationSoftware,Altium Limited,Altium Designer,18.0.7 (293)*
G04*
G04 Layer_Color=16711935*
%FSLAX25Y25*%
%MOIN*%
G70*
G01*
G75*
%ADD84C,0.16548*%
%ADD85C,0.07887*%
%ADD86R,0.07887X0.07887*%
%ADD87C,0.12611*%
%ADD88C,0.09461*%
%ADD89C,0.09461*%
%ADD90C,0.10249*%
%ADD91R,0.10249X0.10249*%
%ADD92R,0.08800X0.08800*%
%ADD93C,0.08800*%
%ADD94O,0.07887X0.25603*%
%ADD95O,0.07887X0.22060*%
%ADD96O,0.22060X0.07887*%
%ADD97C,0.13005*%
%ADD98C,0.04000*%
G54D84*
X822835Y-13780D02*
D03*
X19685D02*
D03*
G54D85*
X287402Y121063D02*
D03*
X277402D02*
D03*
X267402D02*
D03*
X257402D02*
D03*
X287402Y254921D02*
D03*
X277402D02*
D03*
X267402D02*
D03*
X257402D02*
D03*
X555118Y146653D02*
D03*
X565118D02*
D03*
X575118D02*
D03*
X585118D02*
D03*
X555118Y12795D02*
D03*
X565118D02*
D03*
X575118D02*
D03*
X585118D02*
D03*
G54D86*
X297402Y121063D02*
D03*
Y254921D02*
D03*
X545118Y146653D02*
D03*
Y12795D02*
D03*
G54D87*
X107677Y98425D02*
D03*
X51772Y122047D02*
D03*
Y74803D02*
D03*
X107677Y232283D02*
D03*
X51772Y255906D02*
D03*
Y208661D02*
D03*
X734843Y169291D02*
D03*
X790748Y145669D02*
D03*
Y192913D02*
D03*
X734843Y35433D02*
D03*
X790748Y11811D02*
D03*
Y59055D02*
D03*
G54D88*
X99803Y122047D02*
D03*
Y255906D02*
D03*
X742717Y145669D02*
D03*
Y11811D02*
D03*
G54D89*
X99803Y74803D02*
D03*
Y208661D02*
D03*
X742717Y192913D02*
D03*
Y59055D02*
D03*
G54D90*
X17717Y77756D02*
D03*
Y97441D02*
D03*
Y211614D02*
D03*
Y231299D02*
D03*
X824803Y189961D02*
D03*
Y170276D02*
D03*
Y56102D02*
D03*
Y36417D02*
D03*
G54D91*
X17717Y117126D02*
D03*
Y250984D02*
D03*
X824803Y150591D02*
D03*
Y16732D02*
D03*
G54D92*
X93504Y33604D02*
D03*
Y167463D02*
D03*
X749016Y234112D02*
D03*
Y100254D02*
D03*
G54D93*
X93504Y47104D02*
D03*
Y180963D02*
D03*
X749016Y220612D02*
D03*
Y86754D02*
D03*
G54D94*
X33465Y27559D02*
D03*
Y161417D02*
D03*
X809055Y240158D02*
D03*
Y106299D02*
D03*
G54D95*
X9843Y27559D02*
D03*
Y161417D02*
D03*
X832677Y240158D02*
D03*
Y106299D02*
D03*
G54D96*
X21654Y9055D02*
D03*
Y142913D02*
D03*
X820866Y258661D02*
D03*
Y124803D02*
D03*
G54D97*
X98425Y11811D02*
D03*
X322835Y122047D02*
D03*
X98425Y145669D02*
D03*
X322835Y255906D02*
D03*
X744095Y255906D02*
D03*
X519685Y145669D02*
D03*
X744095Y122047D02*
D03*
X519685Y11811D02*
D03*
G54D98*
X219488Y17717D02*
D03*
X281496Y66929D02*
D03*
X123130Y15748D02*
D03*
X119095Y78740D02*
D03*
X124114D02*
D03*
X172244Y102362D02*
D03*
X178150Y58071D02*
D03*
X299213Y102362D02*
D03*
X364173Y111221D02*
D03*
X250000Y55118D02*
D03*
X257402Y111221D02*
D03*
X141732Y85630D02*
D03*
X172244Y79724D02*
D03*
X281496Y107283D02*
D03*
X272638Y106299D02*
D03*
X312992Y35433D02*
D03*
Y11811D02*
D03*
X192913D02*
D03*
X238189D02*
D03*
X207677Y15748D02*
D03*
X245079Y66929D02*
D03*
X280512Y84646D02*
D03*
X195866Y60039D02*
D03*
X272638Y51181D02*
D03*
X195866D02*
D03*
X207677Y37402D02*
D03*
X272638Y68898D02*
D03*
X289370Y58071D02*
D03*
X207677Y96457D02*
D03*
X171260D02*
D03*
Y66929D02*
D03*
X123031Y72835D02*
D03*
X177165Y8858D02*
D03*
X133858Y31299D02*
D03*
X123031Y23819D02*
D03*
X197835Y111221D02*
D03*
X219488Y151575D02*
D03*
X281496Y200787D02*
D03*
X123130Y149606D02*
D03*
X119095Y212598D02*
D03*
X124114D02*
D03*
X172244Y236221D02*
D03*
X178150Y191929D02*
D03*
X299213Y236221D02*
D03*
X364173Y245079D02*
D03*
X250000Y188976D02*
D03*
X257402Y245079D02*
D03*
X141732Y219488D02*
D03*
X172244Y213583D02*
D03*
X281496Y241142D02*
D03*
X272638Y240158D02*
D03*
X312992Y169291D02*
D03*
Y145669D02*
D03*
X192913D02*
D03*
X238189D02*
D03*
X207677Y149606D02*
D03*
X245079Y200787D02*
D03*
X280512Y218504D02*
D03*
X195866Y193898D02*
D03*
X272638Y185039D02*
D03*
X195866D02*
D03*
X207677Y171260D02*
D03*
X272638Y202756D02*
D03*
X289370Y191929D02*
D03*
X207677Y230315D02*
D03*
X171260D02*
D03*
Y200787D02*
D03*
X123031Y206693D02*
D03*
X177165Y142717D02*
D03*
X133858Y165157D02*
D03*
X123031Y157677D02*
D03*
X197835Y245079D02*
D03*
X623032Y250000D02*
D03*
X561024Y200787D02*
D03*
X719390Y251969D02*
D03*
X723425Y188976D02*
D03*
X718405D02*
D03*
X670276Y165354D02*
D03*
X664370Y209646D02*
D03*
X543307Y165354D02*
D03*
X478346Y156496D02*
D03*
X592520Y212598D02*
D03*
X585118Y156496D02*
D03*
X700787Y182087D02*
D03*
X670276Y187992D02*
D03*
X561024Y160433D02*
D03*
X569882Y161417D02*
D03*
X529528Y232283D02*
D03*
Y255906D02*
D03*
X649606D02*
D03*
X604331D02*
D03*
X634842Y251969D02*
D03*
X597441Y200787D02*
D03*
X562008Y183071D02*
D03*
X646654Y207677D02*
D03*
X569882Y216535D02*
D03*
X646654D02*
D03*
X634842Y230315D02*
D03*
X569882Y198819D02*
D03*
X553150Y209646D02*
D03*
X634842Y171260D02*
D03*
X671260D02*
D03*
Y200787D02*
D03*
X719488Y194882D02*
D03*
X665354Y258858D02*
D03*
X708661Y236417D02*
D03*
X719488Y243898D02*
D03*
X644685Y156496D02*
D03*
X623032Y116142D02*
D03*
X561024Y66929D02*
D03*
X719390Y118110D02*
D03*
X723425Y55118D02*
D03*
X718405D02*
D03*
X670276Y31496D02*
D03*
X664370Y75787D02*
D03*
X543307Y31496D02*
D03*
X478346Y22638D02*
D03*
X592520Y78740D02*
D03*
X585118Y22638D02*
D03*
X700787Y48228D02*
D03*
X670276Y54134D02*
D03*
X561024Y26575D02*
D03*
X569882Y27559D02*
D03*
X529528Y98425D02*
D03*
Y122047D02*
D03*
X649606D02*
D03*
X604331D02*
D03*
X634842Y118110D02*
D03*
X597441Y66929D02*
D03*
X562008Y49213D02*
D03*
X646654Y73819D02*
D03*
X569882Y82677D02*
D03*
X646654D02*
D03*
X634842Y96457D02*
D03*
X569882Y64961D02*
D03*
X553150Y75787D02*
D03*
X634842Y37402D02*
D03*
X671260D02*
D03*
Y66929D02*
D03*
X719488Y61024D02*
D03*
X665354Y125000D02*
D03*
X708661Y102559D02*
D03*
X719488Y110039D02*
D03*
X644685Y22638D02*
D03*
M02*
